Coordinates
version=1
nRows=25
nColumns=24
inDegrees=yes

Units are S.I. units (second, meters, Newtons, ...)
If the header above contains a line with 'inDegrees', this indicates whether rotational values are in degrees (yes) or radians (no).

endheader
time	pelvis_tilt	pelvis_list	pelvis_rotation	pelvis_tx	pelvis_ty	pelvis_tz	hip_flexion_r	hip_adduction_r	hip_rotation_r	knee_angle_r	ankle_angle_r	subtalar_angle_r	mtp_angle_r	hip_flexion_l	hip_adduction_l	hip_rotation_l	knee_angle_l	ankle_angle_l	subtalar_angle_l	mtp_angle_l	lumbar_extension	lumbar_bending	lumbar_rotation
4.575000	10.418060	2.393935	-179.283547	0.265775	0.744169	-1.204834	43.686135	-21.949632	-20.989697	-61.624989	21.301410	7.326997	0.000000	45.924225	-27.114153	-18.425672	-62.154983	21.746962	14.540422	0.000000	-6.750160	1.593893	1.690269
4.580000	10.444435	2.393781	-179.202831	0.266402	0.740709	-1.204839	44.256969	-22.154736	-20.757957	-62.597801	21.759541	7.244744	0.000000	46.574689	-27.225656	-18.074377	-63.085994	22.181188	14.599129	0.000000	-6.834077	1.588443	1.671616
4.585000	10.537168	2.424022	-179.189086	0.267013	0.737193	-1.204828	44.909844	-22.300125	-20.517378	-63.555471	22.172522	7.167791	0.000000	47.278917	-27.396891	-17.752032	-64.009862	22.612721	14.621805	0.000000	-6.839937	1.630721	1.711785
4.590000	10.664528	2.454291	-179.020752	0.268215	0.733880	-1.205379	45.580760	-22.445186	-20.345813	-64.479832	22.546442	6.892333	0.000000	48.103083	-27.465016	-17.274424	-64.798494	22.827759	14.619383	0.000000	-6.894508	1.573146	1.612686
4.595000	10.557375	2.406017	-179.067694	0.268144	0.730196	-1.204959	46.037428	-22.708591	-20.050617	-65.506516	23.055442	6.915088	0.000000	48.512626	-27.655376	-17.131197	-65.853802	23.411291	14.708985	0.000000	-7.038818	1.594595	1.667211
4.600000	10.580750	2.359820	-179.003844	0.268704	0.726691	-1.205078	46.613147	-22.936558	-19.793282	-66.450741	23.489389	6.867817	0.000000	49.104301	-27.744678	-16.862783	-66.723724	23.864398	14.826611	0.000000	-7.126635	1.536921	1.625009
4.605000	10.609861	2.360057	-178.949891	0.269233	0.723228	-1.205311	47.170820	-23.096041	-19.552344	-67.371424	23.897866	6.800126	0.000000	49.718340	-27.879767	-16.558967	-67.588420	24.250855	14.881775	0.000000	-7.206586	1.498486	1.617173
4.610000	10.657783	2.357349	-178.897418	0.269761	0.719731	-1.205446	47.752191	-23.269216	-19.315132	-68.284539	24.308980	6.741360	0.000000	50.362006	-27.998117	-16.246827	-68.486018	24.601659	14.901471	0.000000	-7.259134	1.483568	1.598623
4.615000	10.729385	2.392063	-178.873781	0.270222	0.716245	-1.205492	48.340407	-23.403726	-19.101036	-69.171958	24.701303	6.708143	0.000000	50.998063	-28.148382	-15.934935	-69.283935	25.068939	14.922216	0.000000	-7.275260	1.514443	1.649107
4.620000	10.714505	2.391528	-178.861229	0.270707	0.712790	-1.205690	48.865368	-23.553847	-18.857693	-70.092201	25.094490	6.689625	0.000000	51.555063	-28.309890	-15.661074	-70.197902	25.384473	14.900481	0.000000	-7.396047	1.473459	1.712758
4.625000	10.746648	2.385810	-178.845577	0.271200	0.709270	-1.205771	49.429113	-23.711413	-18.606923	-70.980621	25.476539	6.671775	0.000000	52.126734	-28.446059	-15.396866	-70.980435	25.882194	15.012205	0.000000	-7.461799	1.465699	1.713707
4.630000	10.777021	2.386898	-178.828448	0.271699	0.705795	-1.205911	49.973352	-23.844546	-18.358322	-71.836442	25.839774	6.648028	0.000000	52.725251	-28.582960	-15.113202	-71.887373	26.152723	14.987895	0.000000	-7.535178	1.453164	1.719901
4.635000	10.789682	2.400968	-178.841490	0.272114	0.702360	-1.206100	50.498524	-23.939915	-18.108768	-72.683049	26.211927	6.562696	0.000000	53.272289	-28.763743	-14.865002	-72.707608	26.539141	15.034552	0.000000	-7.616787	1.462736	1.724227
4.640000	10.798165	2.414710	-178.852408	0.272481	0.698931	-1.206191	51.029129	-24.057532	-17.868717	-73.542866	26.577969	6.497774	0.000000	53.808573	-28.920410	-14.598490	-73.518311	26.946250	15.067711	0.000000	-7.694222	1.483398	1.755981
4.645000	10.805598	2.437769	-178.861452	0.272835	0.695560	-1.206360	51.540606	-24.159397	-17.649791	-74.387222	26.945266	6.428869	0.000000	54.344926	-29.091401	-14.330620	-74.316748	27.335419	15.116925	0.000000	-7.770520	1.489345	1.798649
4.650000	10.804255	2.444175	-178.861756	0.273141	0.692181	-1.206470	52.035982	-24.286753	-17.433417	-75.215866	27.330016	6.363557	0.000000	54.868233	-29.246023	-14.076365	-75.119137	27.685267	15.168952	0.000000	-7.848691	1.496234	1.832532
4.655000	10.774554	2.445539	-178.843281	0.273437	0.688875	-1.206638	52.459127	-24.408786	-17.259454	-75.987726	27.753167	6.231353	0.000000	55.350832	-29.383701	-13.822076	-75.890594	28.027693	15.228363	0.000000	-7.956892	1.488268	1.818042
4.660000	10.753229	2.470205	-178.872909	0.273724	0.685541	-1.206872	52.929867	-24.470417	-17.000202	-76.796541	28.055273	6.242252	0.000000	55.840565	-29.588531	-13.578614	-76.679844	28.344459	15.300102	0.000000	-8.055665	1.490597	1.892128
4.665000	10.734873	2.464299	-178.882341	0.273976	0.682255	-1.206928	53.390202	-24.594291	-16.779649	-77.587698	28.394788	6.186709	0.000000	56.308445	-29.739153	-13.361410	-77.445864	28.711695	15.390384	0.000000	-8.131127	1.485863	1.925189
4.670000	10.712836	2.475258	-178.914412	0.274214	0.678965	-1.207040	53.851873	-24.692322	-16.577659	-78.384264	28.721620	6.138888	0.000000	56.777021	-29.915511	-13.127007	-78.220505	29.048817	15.393903	0.000000	-8.211961	1.484062	1.993927
4.675000	10.641633	2.483917	-178.946516	0.274403	0.675820	-1.207090	54.233380	-24.795899	-16.381467	-79.144592	29.079106	6.066549	0.000000	57.158251	-30.074911	-12.899274	-78.944936	29.439045	15.390876	0.000000	-8.352424	1.501901	2.036767
4.680000	10.630399	2.502719	-178.960809	0.274619	0.672626	-1.207323	54.660630	-24.881688	-16.199135	-79.888730	29.388116	6.054685	0.000000	57.624667	-30.242976	-12.644350	-79.660290	29.783151	15.547489	0.000000	-8.416801	1.515904	2.048696
4.685000	10.590769	2.494002	-178.964661	0.274810	0.669514	-1.207411	55.046739	-25.005419	-16.006328	-80.598066	29.723508	6.040115	0.000000	58.037055	-30.372585	-12.434461	-80.366938	30.089885	15.597621	0.000000	-8.508708	1.513710	2.058858
4.690000	10.512717	2.497581	-178.975242	0.274917	0.666496	-1.207612	55.370732	-25.110771	-15.837186	-81.319940	30.086011	6.057539	0.000000	58.399578	-30.534575	-12.228295	-81.062801	30.399684	15.682842	0.000000	-8.642871	1.503020	2.065692
4.695000	10.445570	2.514952	-179.004225	0.274949	0.663467	-1.207724	55.719092	-25.223111	-15.679237	-82.044413	30.409747	6.124274	0.000000	58.772542	-30.711270	-12.012416	-81.769219	30.746651	15.774033	0.000000	-8.745407	1.514107	2.103143
